<svg width="632" height="461" viewBox="0 0 632 461" fill="none" xmlns="http://www.w3.org/2000/svg">
<g clip-path="url(#clip0_158_186)">
<path d="M0.272778 101.708C-2.11085 117.03 11.1254 138.803 39.9814 167.029C39.0929 169.057 38.2779 171.019 37.5363 172.915C23.607 208.525 24.6322 229.46 40.612 235.72C43.495 236.85 46.8095 237.483 50.5558 237.619C61.7581 242.008 78.187 236.799 99.8426 221.992L103.34 221.793C132.161 245.252 149.784 258.239 156.209 260.756L166.34 264.725C184.992 268.039 197.026 262.772 202.443 248.923L204.717 243.112C208.844 232.561 204.211 204.699 190.819 159.526L249.483 115.917C251.034 114.623 252.229 112.905 253.067 110.761L257.565 99.2622C259.917 86.2091 255.53 76.173 244.407 69.1538L232.917 64.6525L173.93 58.086C170.997 56.842 163.14 41.5958 150.357 12.3477L141.387 5.41122L132.738 2.02312C119.229 -3.26878 106.742 1.8209 95.2753 17.2922C86.1213 43.3656 80.3674 59.411 78.0136 65.4285C67.1792 68.5991 51.1911 71.2242 30.0493 73.3039C15.8949 76.2196 6.7057 83.0767 2.48176 93.8752C1.54669 96.2657 0.81036 98.8766 0.272778 101.708Z" fill="#FFCBE2"/>
<path d="M145.4 293.058C154.451 310.134 183.908 321.98 233.77 328.595C234.396 331.284 235.046 333.852 235.72 336.298C248.382 382.253 265.024 402.385 285.645 396.694C289.366 395.668 293.147 393.823 296.988 391.161C311.444 387.172 323.958 369.697 334.529 338.737L337.872 335.926C384.142 337.809 411.423 337.607 419.714 335.319L432.789 331.712C453.88 321.084 461.964 306.835 457.04 288.964L454.973 281.465C451.222 267.849 425.811 243.497 378.742 208.411L404.769 121.048C405.352 118.598 405.263 115.99 404.501 113.224L400.412 98.3849C393.021 83.5983 381.156 76.857 364.816 78.1608L349.987 82.2524L286.207 119.768C282.351 120.718 263.133 111.369 228.553 91.7231L214.424 91.5013L203.263 94.5811C185.83 99.3913 177.162 113.802 177.258 137.813C187.571 170.679 193.798 190.995 195.938 198.76C187.488 210.02 173.486 224.586 153.934 242.458C141.98 255.943 137.922 269.654 141.762 283.589C142.612 286.674 143.825 289.83 145.4 293.058Z" fill="#FFB5D7"/>
<path d="M682.4 209.53C697.519 230.764 694.016 273.474 671.891 337.66C674.753 340.039 677.456 342.374 679.998 344.665C727.748 387.69 741.969 419.933 722.661 441.391C719.178 445.263 714.672 448.714 709.144 451.744C695.609 466.787 666.991 471.345 623.29 465.416L617.884 467.755C592.223 524.748 575.511 557.559 567.748 566.187L555.507 579.792C529.965 598.838 507.909 599.994 489.34 583.262L481.547 576.241C467.399 563.492 453.386 518.118 439.506 440.117L318.488 418.798C315.183 418.023 312.093 416.34 309.219 413.751L293.8 399.857C280.438 382.009 279.475 363.615 290.911 344.677L304.794 329.247L388.517 274.899C391.99 270.818 392.322 241.975 389.515 188.372L397.777 171.181L408.227 159.566C424.549 141.426 447.152 139.661 476.036 154.271C509.427 186.562 530.157 206.343 538.226 213.613C556.899 210.21 582.909 202.1 616.254 189.285C639.726 182.995 658.702 186.374 673.182 199.421C676.387 202.309 679.46 205.679 682.4 209.53Z" fill="url(#paint0_linear_158_186)"/>
</g>
<defs>
<linearGradient id="paint0_linear_158_186" x1="496.14" y1="171.876" x2="563.949" y2="417.158" gradientUnits="userSpaceOnUse">
<stop stop-color="#FF69AC"/>
<stop offset="0.664754" stop-color="#FF9FC5"/>
</linearGradient>
<clipPath id="clip0_158_186">
<rect width="632" height="461" fill="white"/>
</clipPath>
</defs>
</svg>
