<svg width="1077" height="725" viewBox="0 0 1077 725" fill="none" xmlns="http://www.w3.org/2000/svg">
<path d="M471.33 178.163C341.941 225.257 232.613 288.815 160.432 353.355C124.333 385.633 97.6832 418.016 82.3932 448.552C67.1086 479.077 63.331 507.403 72.2782 531.985C81.2254 556.567 102.327 575.839 133.657 589.397C164.997 602.961 206.227 610.637 254.629 612.16C351.409 615.203 476.013 593.617 605.402 546.523C734.79 499.429 844.118 435.872 916.3 371.331C952.399 339.053 979.048 306.67 994.338 276.135C1009.62 245.61 1013.4 217.283 1004.45 192.701C995.506 168.119 974.404 148.848 943.075 135.289C911.734 121.726 870.504 114.049 822.102 112.527C725.323 109.483 600.718 131.07 471.33 178.163Z" stroke="black" stroke-width="8"/>
<path d="M605.286 178.163C734.675 225.257 844.003 288.815 916.184 353.355C952.284 385.633 978.933 418.016 994.223 448.552C1009.51 479.077 1013.29 507.403 1004.34 531.985C995.391 556.567 974.289 575.839 942.959 589.397C911.619 602.961 870.389 610.637 821.987 612.16C725.207 615.203 600.603 593.617 471.214 546.523C341.826 499.429 232.498 435.872 160.317 371.331C124.217 339.053 97.5678 306.67 82.2779 276.135C66.9933 245.61 63.2156 217.283 72.1628 192.701C81.1101 168.119 102.212 148.848 133.542 135.289C164.882 121.726 206.112 114.049 254.514 112.527C351.294 109.483 475.898 131.07 605.286 178.163Z" stroke="white" stroke-width="8"/>
<path d="M342 362.197C342 262.724 364.272 172.866 400.08 108.018C435.966 43.0302 484.896 3.99991 538 3.99991C591.104 3.99991 640.034 43.0302 675.92 108.018C711.728 172.866 734 262.724 734 362.197C734 461.67 711.728 551.528 675.92 616.376C640.034 681.364 591.104 720.395 538 720.395C484.896 720.395 435.966 681.364 400.08 616.376C364.272 551.528 342 461.67 342 362.197Z" stroke="white" stroke-width="8"/>
<mask id="mask0_243_81" style="mask-type:alpha" maskUnits="userSpaceOnUse" x="338" y="-1" width="400" height="726">
<path d="M342 362.197C342 262.724 364.272 172.866 400.08 108.018C435.966 43.0302 484.896 3.99991 538 3.99991C591.104 3.99991 640.034 43.0302 675.92 108.018C711.728 172.866 734 262.724 734 362.197C734 461.67 711.728 551.528 675.92 616.376C640.034 681.364 591.104 720.395 538 720.395C484.896 720.395 435.966 681.364 400.08 616.376C364.272 551.528 342 461.67 342 362.197Z" stroke="white" stroke-width="8"/>
</mask>
<g mask="url(#mask0_243_81)">
<rect x="235.191" y="302.35" width="533" height="289.078" transform="rotate(-16.5469 235.191 302.35)" fill="black"/>
</g>
<path d="M320.8 300.396V284.84H336.4V300.396H320.8ZM242.8 269.284V238.173H258.4V269.284H242.8ZM305.2 207.062V222.618H274V207.062H305.2ZM352 269.284V284.84H336.4V269.284H352ZM305.2 284.84V269.284H320.8V284.84H305.2ZM320.8 253.729H336.4V269.284H320.8V253.729ZM258.4 222.618H274V238.173H258.4V222.618ZM227.2 238.173V222.618H242.8V238.173H227.2ZM196 222.618V207.062H227.2V222.618H196ZM258.4 207.062V191.507H274V207.062H258.4ZM227.2 191.507H242.8V207.062H227.2V191.507ZM242.8 160.396H258.4V191.507H242.8V160.396Z" fill="white"/>
<path d="M892.238 606.454V596.754H882.571V606.454H872.904V587.054H863.238V577.354H882.571V567.654H892.238V577.354H911.571V587.054H901.904V606.454H892.238ZM921.238 664.654V645.254H911.571V616.154H930.904V606.454H959.904V616.154H979.238V645.254H969.571V664.654H921.238ZM959.904 654.954V635.554H969.571V625.854H950.238V616.154H940.571V625.854H921.238V635.554H930.904V654.954H940.571V645.254H950.238V654.954H959.904Z" fill="black"/>
</svg>
