<svg width="1153" height="437" viewBox="0 0 1153 437" fill="none" xmlns="http://www.w3.org/2000/svg">
<path d="M1018.2 102.333V87.6667H1025.6V102.333H1018.2ZM1047.8 73V80.3333H1033V73H1047.8ZM1025.6 80.3333H1033V87.6667H1025.6V80.3333ZM1010.8 87.6667V80.3333H1018.2V87.6667H1010.8ZM996 80.3333V73H1010.8V80.3333H996ZM1025.6 73V65.6667H1033V73H1025.6ZM1010.8 65.6667H1018.2V73H1010.8V65.6667ZM1018.2 51H1025.6V65.6667H1018.2V51Z" fill="white"/>
<path d="M925.2 436.333V421.667H932.6V436.333H925.2ZM954.8 407V414.333H940V407H954.8ZM932.6 414.333H940V421.667H932.6V414.333ZM917.8 421.667V414.333H925.2V421.667H917.8ZM903 414.333V407H917.8V414.333H903ZM932.6 407V399.667H940V407H932.6ZM917.8 399.667H925.2V407H917.8V399.667ZM925.2 385H932.6V399.667H925.2V385Z" fill="white"/>
<path d="M501.2 410.333V395.667H508.6V410.333H501.2ZM530.8 381V388.333H516V381H530.8ZM508.6 388.333H516V395.667H508.6V388.333ZM493.8 395.667V388.333H501.2V395.667H493.8ZM479 388.333V381H493.8V388.333H479ZM508.6 381V373.667H516V381H508.6ZM493.8 373.667H501.2V381H493.8V373.667ZM501.2 359H508.6V373.667H501.2V359Z" fill="white"/>
<path d="M145.2 51.3333V36.6667H152.6V51.3333H145.2ZM174.8 22V29.3333H160V22H174.8ZM152.6 29.3333H160V36.6667H152.6V29.3333ZM137.8 36.6667V29.3333H145.2V36.6667H137.8ZM123 29.3333V22H137.8V29.3333H123ZM152.6 22V14.6667H160V22H152.6ZM137.8 14.6667H145.2V22H137.8V14.6667ZM145.2 0H152.6V14.6667H145.2V0Z" fill="white"/>
<path d="M22.2 346.333V331.667H29.6V346.333H22.2ZM51.8 317V324.333H37V317H51.8ZM29.6 324.333H37V331.667H29.6V324.333ZM14.8 331.667V324.333H22.2V331.667H14.8ZM0 324.333V317H14.8V324.333H0ZM29.6 317V309.667H37V317H29.6ZM14.8 309.667H22.2V317H14.8V309.667ZM22.2 295H29.6V309.667H22.2V295Z" fill="white"/>
<path d="M269.2 299.333V284.667H276.6V299.333H269.2ZM298.8 270V277.333H284V270H298.8ZM276.6 277.333H284V284.667H276.6V277.333ZM261.8 284.667V277.333H269.2V284.667H261.8ZM247 277.333V270H261.8V277.333H247ZM276.6 270V262.667H284V270H276.6ZM261.8 262.667H269.2V270H261.8V262.667ZM269.2 248H276.6V262.667H269.2V248Z" fill="white"/>
<path d="M485.2 77.3333V62.6667H492.6V77.3333H485.2ZM514.8 48V55.3333H500V48H514.8ZM492.6 55.3333H500V62.6667H492.6V55.3333ZM477.8 62.6667V55.3333H485.2V62.6667H477.8ZM463 55.3333V48H477.8V55.3333H463ZM492.6 48V40.6667H500V48H492.6ZM477.8 40.6667H485.2V48H477.8V40.6667ZM485.2 26H492.6V40.6667H485.2V26Z" fill="white"/>
<path d="M1137.4 231V223.667H1130V216.333H1137.4V209H1144.8V216.333H1152.2V223.667H1144.8V231H1137.4Z" fill="white"/>
<path d="M724.4 321V313.667H717V306.333H724.4V299H731.8V306.333H739.2V313.667H731.8V321H724.4Z" fill="white"/>
<path d="M781.4 77V69.6667H774V62.3333H781.4V55H788.8V62.3333H796.2V69.6667H788.8V77H781.4Z" fill="white"/>
<path d="M1085.4 396V388.667H1078V381.333H1085.4V374H1092.8V381.333H1100.2V388.667H1092.8V396H1085.4Z" fill="white"/>
<path d="M106.4 113V105.667H99V98.3333H106.4V91H113.8V98.3333H121.2V105.667H113.8V113H106.4Z" fill="white"/>
</svg>
