<svg width="626" height="606" viewBox="0 0 626 606" fill="none" xmlns="http://www.w3.org/2000/svg">
<path d="M351.92 2.94727C389.605 11.3216 428.061 61.7881 467.288 154.347C472.798 154.126 478.087 154.016 483.155 154.016C578.358 154.016 625.96 175.393 625.96 218.146C625.96 225.859 624.417 234.123 621.332 242.938C621.332 272.91 594.336 306.297 540.343 343.1L536.707 351.034C564.915 439.185 579.02 491.855 579.02 509.044V536.151C569.764 582.43 546.624 605.57 509.601 605.57H494.064C465.856 605.57 405.472 569.538 312.914 497.475L158.539 594C154.132 596.424 149.063 597.636 143.333 597.636H112.59C80.1948 591.245 60.9118 571.962 54.7412 539.787V509.044L93.0869 366.24C92.8665 358.306 64.6582 326.241 8.46191 270.045L0.52832 242.938V219.799C0.52832 183.657 23.668 159.305 69.9473 146.744C138.705 149.168 181.128 150.38 197.215 150.38C214.405 128.122 235.01 93.4123 259.031 46.2515C278.645 16.0597 302.886 0.963867 331.756 0.963867C338.147 0.963867 344.868 1.625 351.92 2.94727Z" fill="#FFB5D7"/>
</svg>
