<svg width="845" height="817" viewBox="0 0 845 817" fill="none" xmlns="http://www.w3.org/2000/svg">
<path d="M474.875 2.78572C525.768 14.0952 577.702 82.25 630.679 207.25C638.119 206.952 645.262 206.804 652.107 206.804C780.679 206.804 844.964 235.673 844.964 293.411C844.964 303.827 842.881 314.988 838.714 326.893C838.714 367.369 802.256 412.458 729.339 462.161L724.429 472.875C762.524 591.923 781.571 663.054 781.571 686.268V722.875C769.071 785.375 737.821 816.625 687.821 816.625H666.839C628.744 816.625 547.196 767.964 422.196 670.643L213.714 801C207.762 804.274 200.917 805.911 193.179 805.911H151.661C107.911 797.28 81.869 771.238 73.5357 727.786V686.268L125.321 493.411C125.024 482.696 86.9286 439.393 11.0357 363.5L0.321428 326.893V295.643C0.321428 246.833 31.5714 213.946 94.0714 196.982C186.929 200.256 244.22 201.893 265.946 201.893C289.161 171.833 316.988 124.958 349.429 61.2679C375.917 20.4941 408.655 0.10715 447.643 0.10715C456.274 0.10715 465.351 1.00001 474.875 2.78572Z" fill="url(#paint0_linear_154_169)"/>
<defs>
<linearGradient id="paint0_linear_154_169" x1="147.521" y1="232.767" x2="513.736" y2="527.704" gradientUnits="userSpaceOnUse">
<stop stop-color="#FF69AC"/>
<stop offset="0.664754" stop-color="#FF9FC5"/>
</linearGradient>
</defs>
</svg>
