<svg width="502" height="486" viewBox="0 0 502 486" fill="none" xmlns="http://www.w3.org/2000/svg">
<path d="M282.097 1.93555C312.323 8.65234 343.167 49.1299 374.63 123.368C379.049 123.191 383.291 123.103 387.356 123.103C463.716 123.103 501.896 140.249 501.896 174.54C501.896 180.726 500.658 187.354 498.184 194.425C498.184 218.464 476.531 245.243 433.225 274.761L430.309 281.125C452.934 351.828 464.246 394.073 464.246 407.86V429.601C456.822 466.72 438.263 485.28 408.567 485.28H396.106C373.481 485.28 325.049 456.38 250.811 398.58L126.992 476C123.457 477.944 119.392 478.917 114.796 478.917H90.1382C64.1548 473.791 48.6885 458.324 43.7393 432.518V407.86L74.4951 293.321C74.3184 286.958 51.6934 261.239 6.62012 216.166L0.256836 194.425V175.865C0.256836 146.877 18.8164 127.345 55.9355 117.27C111.084 119.214 145.11 120.187 158.013 120.187C171.8 102.334 188.327 74.4946 207.594 36.6685C223.325 12.4526 242.769 0.344727 265.924 0.344727C271.05 0.344727 276.441 0.875 282.097 1.93555Z" fill="#FFCBE2"/>
</svg>
